# xmcd CD database file
#
# Track frame offsets:
#	187
#	18830
#	39050
#	62292
#	84572
#	112562
#	138580
#	159655
#
# Disc length: 2345 seconds
#
# Revision: 1
# Processed by: cddbd v1.4PL0 Copyright (c) Steve Scherf et al.
# Submitted via: CDex 1.50
#
DISCID=4e092708
DTITLE=Duke Jones - Thunder Island
DYEAR=1900
DGENRE=Jazz
TTITLE0=Little Boy Blue
TTITLE1=No Ordinary Love
TTITLE2=You And I (Thunder Island)
TTITLE3=Let's Have It All
TTITLE4=You Don't Know What Love Is
TTITLE5=Caribbean Windsor
TTITLE6=Thunder (In The Sky)
TTITLE7=True Lovers
EXTD=
EXTT0=
EXTT1=
EXTT2=
EXTT3=
EXTT4=
EXTT5=
EXTT6=
EXTT7=
PLAYORDER=
